<svg width="21" height="31" viewBox="0 0 21 31" fill="none" xmlns="http://www.w3.org/2000/svg">
<path d="M10.176 27.512C8.29867 27.512 6.48533 27.2987 4.736 26.872C2.98667 26.4453 1.54667 25.8907 0.416 25.208L2.848 19.704C3.91467 20.3227 5.09867 20.824 6.4 21.208C7.72267 21.5707 9.00267 21.752 10.24 21.752C10.9653 21.752 11.5307 21.7093 11.936 21.624C12.3627 21.5173 12.672 21.3787 12.864 21.208C13.056 21.016 13.152 20.792 13.152 20.536C13.152 20.1307 12.928 19.8107 12.48 19.576C12.032 19.3413 11.4347 19.1493 10.688 19C9.96267 18.8293 9.16267 18.6587 8.288 18.488C7.41333 18.296 6.528 18.0507 5.632 17.752C4.75733 17.4533 3.94667 17.0587 3.2 16.568C2.47467 16.0773 1.888 15.4373 1.44 14.648C0.992 13.8373 0.768 12.8347 0.768 11.64C0.768 10.2533 1.152 8.99467 1.92 7.864C2.70933 6.712 3.872 5.79467 5.408 5.112C6.96533 4.42933 8.896 4.088 11.2 4.088C12.7147 4.088 14.208 4.248 15.68 4.568C17.152 4.888 18.4747 5.37867 19.648 6.04L17.376 11.512C16.2667 10.9573 15.1893 10.5413 14.144 10.264C13.12 9.98667 12.1173 9.848 11.136 9.848C10.4107 9.848 9.83467 9.912 9.408 10.04C8.98133 10.168 8.672 10.3387 8.48 10.552C8.30933 10.7653 8.224 11 8.224 11.256C8.224 11.64 8.448 11.9493 8.896 12.184C9.344 12.3973 9.93067 12.5787 10.656 12.728C11.4027 12.8773 12.2133 13.0373 13.088 13.208C13.984 13.3787 14.8693 13.6133 15.744 13.912C16.6187 14.2107 17.4187 14.6053 18.144 15.096C18.8907 15.5867 19.488 16.2267 19.936 17.016C20.384 17.8053 20.608 18.7867 20.608 19.96C20.608 21.3253 20.2133 22.584 19.424 23.736C18.656 24.8667 17.504 25.784 15.968 26.488C14.432 27.1707 12.5013 27.512 10.176 27.512ZM8.64 30.84V26.68H13.152V30.84H8.64ZM8.64 4.92V0.759998H13.152V4.92H8.64Z" fill="#D6AD60"/>
</svg>
