<svg width="11" height="16" viewBox="0 0 11 16" fill="none" xmlns="http://www.w3.org/2000/svg">
<path d="M5.088 14.256C4.14933 14.256 3.24267 14.1493 2.368 13.936C1.49333 13.7227 0.773333 13.4453 0.208 13.104L1.424 10.352C1.95733 10.6613 2.54933 10.912 3.2 11.104C3.86133 11.2853 4.50133 11.376 5.12 11.376C5.48267 11.376 5.76533 11.3547 5.968 11.312C6.18133 11.2587 6.336 11.1893 6.432 11.104C6.528 11.008 6.576 10.896 6.576 10.768C6.576 10.5653 6.464 10.4053 6.24 10.288C6.016 10.1707 5.71733 10.0747 5.344 10C4.98133 9.91467 4.58133 9.82933 4.144 9.744C3.70667 9.648 3.264 9.52533 2.816 9.376C2.37867 9.22667 1.97333 9.02933 1.6 8.784C1.23733 8.53867 0.944 8.21867 0.72 7.824C0.496 7.41867 0.384 6.91733 0.384 6.32C0.384 5.62667 0.576 4.99733 0.96 4.432C1.35467 3.856 1.936 3.39733 2.704 3.056C3.48267 2.71467 4.448 2.544 5.6 2.544C6.35733 2.544 7.104 2.624 7.84 2.784C8.576 2.944 9.23733 3.18933 9.824 3.52L8.688 6.256C8.13333 5.97867 7.59467 5.77067 7.072 5.632C6.56 5.49333 6.05867 5.424 5.568 5.424C5.20533 5.424 4.91733 5.456 4.704 5.52C4.49067 5.584 4.336 5.66933 4.24 5.776C4.15467 5.88267 4.112 6 4.112 6.128C4.112 6.32 4.224 6.47467 4.448 6.592C4.672 6.69867 4.96533 6.78933 5.328 6.864C5.70133 6.93867 6.10667 7.01867 6.544 7.104C6.992 7.18933 7.43467 7.30667 7.872 7.456C8.30933 7.60533 8.70933 7.80267 9.072 8.048C9.44533 8.29333 9.744 8.61333 9.968 9.008C10.192 9.40267 10.304 9.89333 10.304 10.48C10.304 11.1627 10.1067 11.792 9.712 12.368C9.328 12.9333 8.752 13.392 7.984 13.744C7.216 14.0853 6.25067 14.256 5.088 14.256ZM4.32 15.92V13.84H6.576V15.92H4.32ZM4.32 2.96V0.879999H6.576V2.96H4.32Z" fill="#D6AD60"/>
</svg>
